HIERARCHY
ROOT Hips
{
	OFFSET 0.00000 0.00000 0.00000
	CHANNELS 6 Xposition Yposition Zposition Zrotation Yrotation Xrotation 
	JOINT LHipJoint
	{
		OFFSET 0 0 0
		CHANNELS 3 Zrotation Yrotation Xrotation
		JOINT LeftHip
		{
			OFFSET 1.38280 -1.96574 0.54427
			CHANNELS 3 Zrotation Yrotation Xrotation
			JOINT LeftKnee
			{
				OFFSET 2.72096 -7.47578 0.00000
				CHANNELS 3 Zrotation Yrotation Xrotation
				JOINT LeftAnkle
				{
					OFFSET 2.73041 -7.50176 0.00000
					CHANNELS 3 Zrotation Yrotation Xrotation
					JOINT LeftToe
					{
						OFFSET 0.16150 -0.44371 2.18031
						CHANNELS 3 Zrotation Yrotation Xrotation
						End Site
						{
							OFFSET 0.00000 -0.00000 1.12127
						}
					}
				}
			}
		}
	}
	JOINT RHipJoint
	{
		OFFSET 0 0 0
		CHANNELS 3 Zrotation Yrotation Xrotation
		JOINT RightHip
		{
			OFFSET -1.57224 -1.96575 0.54427
			CHANNELS 3 Zrotation Yrotation Xrotation
			JOINT RightKnee
			{
				OFFSET -2.95935 -8.13076 0.00000
				CHANNELS 3 Zrotation Yrotation Xrotation
				JOINT RightAnkle
				{
					OFFSET -2.52345 -6.93311 0.00000
					CHANNELS 3 Zrotation Yrotation Xrotation
					JOINT RightToe
					{
						OFFSET -0.04475 -0.10171 1.86688
						CHANNELS 3 Zrotation Yrotation Xrotation
						End Site
						{
							OFFSET -0.00000 -0.00000 0.95157
						}
					}
				}
			}
		}
	}
	JOINT lowerback
	{
		OFFSET 0 0 0
		CHANNELS 3 Zrotation Yrotation Xrotation
		JOINT Chest
		{
			OFFSET 0.00669 2.07367 0.09104
			CHANNELS 3 Zrotation Yrotation Xrotation
			JOINT Chest2
			{
				OFFSET -0.00664 2.06198 -0.04732
				CHANNELS 3 Zrotation Yrotation Xrotation
				JOINT lowerneck
				{
					OFFSET 0 0 0
					CHANNELS 3 Zrotation Yrotation Xrotation
					JOINT Neck
					{
						OFFSET -0.00021 1.49948 0.16345
						CHANNELS 3 Zrotation Yrotation Xrotation
						JOINT Head
						{
							OFFSET 0.06080 1.50567 -0.26702
							CHANNELS 3 Zrotation Yrotation Xrotation
							End Site
							{
								OFFSET 0.01726 1.56470 -0.11854
							}
						}
					}
				}
				JOINT LeftCollar
				{
					OFFSET 0 0 0
					CHANNELS 3 Zrotation Yrotation Xrotation
					JOINT LeftShoulder
					{
						OFFSET 3.14993 0.82932 -0.22488
CHANNELS 3 Zrotation Xrotation Yrotation
						JOINT LeftElbow
						{
OFFSET 0 -5.682360 -0.000000
CHANNELS 3 Zrotation Xrotation Yrotation
							JOINT LeftWrist
							{
OFFSET 0 -3.171120 0.000000
CHANNELS 3 Zrotation Xrotation Yrotation
								JOINT lhand
								{
									OFFSET 0 0 0
CHANNELS 3 Zrotation Xrotation Yrotation
									JOINT LFingers
									{
OFFSET 0 -0.632690 0.000000
CHANNELS 3 Zrotation Xrotation Yrotation
										End Site
										{
OFFSET 0 -0.510090 0.000000
										}
									}
								}
								JOINT LThumb
								{
OFFSET 0 0.000000 0.000000
CHANNELS 3 Zrotation Xrotation Yrotation
									End Site
									{
OFFSET 0 -0.517880 0.517880
									}
								}
							}
						}
					}
				}
				JOINT RightCollar
				{
					OFFSET 0 0 0
					CHANNELS 3 Zrotation Yrotation Xrotation
					JOINT RightShoulder
					{
						OFFSET -3.10571 0.91279 -0.33334
CHANNELS 3 Zrotation Xrotation Yrotation
						JOINT RightElbow
						{
OFFSET 0 -5.871200 -0.000000
CHANNELS 3 Zrotation Xrotation Yrotation
							JOINT RightWrist
							{
OFFSET 0 -3.375890 0.000000
CHANNELS 3 Zrotation Xrotation Yrotation
								JOINT rhand
								{
									OFFSET 0 0 0
CHANNELS 3 Zrotation Xrotation Yrotation
									JOINT RFingers
									{
OFFSET 0 -0.603260 0.000000
CHANNELS 3 Zrotation Xrotation Yrotation
										End Site
										{
OFFSET 0 -0.486360 0.000000
										}
									}
								}
								JOINT RThumb
								{
OFFSET 0 0.000000 0.000000
CHANNELS 3 Zrotation Xrotation Yrotation
									End Site
									{
OFFSET 0 -0.493790 0.493790
									}
								}
							}
						}
					}
				}
			}
		}
	}
}
MOTION
Frames: 5
Frame Time: 0.008333333333333333
17.386600 18.095900 0.178900 101.641000 -87.833800 -88.126100 0.000000 0.000000 0.000000 -20.878200 -7.868900 -28.261300 4.423800 12.704000 38.270300 1.495000 -6.807200 -21.894800 0.099700 -2.036600 -5.606700 0.000000 0.000000 0.000000 12.935900 16.490200 -24.465700 -4.627200 -12.951300 39.186300 0.409800 15.733600 -5.990300 -3.851900 -11.960700 35.593000 0.238200 0.514400 -10.299400 0.960100 0.580900 1.167300 0.969800 0.269900 7.010600 -5.181400 -1.220200 -14.495700 1.089700 -0.875600 19.952200 1.117000 -0.760900 8.652000 0.000000 0.000000 0.000000 8.466400 -3.661200 -15.850000 18.759300 -29.118500 4.913200 15.722200 -4.186800 -33.341800 0.000000 0.000000 0.000000 -7.125000 0.000000 0.000000 -20.655400 63.168900 9.311800 0.000000 0.000000 0.000000 1.095700 3.764400 14.220000 -21.358500 -32.244400 -6.240100 -26.011500 1.288000 -29.303400 0.000000 0.000000 0.000000 7.125000 0.000000 -0.000000 2.787100 -1.971700 2.884700
17.308208 18.124335 0.360048 84.305585 -88.303448 -70.999044 0.000000 0.000000 0.000000 -21.056742 -8.371163 -27.175598 4.270266 12.511574 37.566616 1.544206 -6.915583 -22.258436 0.062859 -1.616085 -4.445921 0.000000 0.000000 0.000000 13.076654 16.928682 -22.867834 -4.359010 -12.623404 37.974679 0.312979 15.910479 -7.532136 -3.875173 -11.992385 35.705108 -0.222650 0.479882 -10.880976 0.495892 0.625604 0.866816 0.752328 0.283673 7.021333 -4.949094 -1.266453 -14.709114 1.325886 -1.048958 20.587021 1.138953 -0.812709 8.912044 0.000000 0.000000 0.000000 3.623591 -1.708091 -19.582591 18.182852 -28.390658 4.635848 13.588508 -4.623127 -32.083614 0.000000 0.000000 0.000000 -7.125000 0.000000 0.000000 -21.843625 61.469465 8.997117 0.000000 0.000000 0.000000 0.530186 4.591824 18.807946 -19.945453 -30.576451 -5.503669 -25.651692 1.563721 -30.455298 0.000000 0.000000 0.000000 7.125000 0.000000 0.000000 3.181184 -3.090358 3.353062
17.225616 18.121957 0.513681 79.806624 -88.567436 -67.178761 0.000000 0.000000 0.000000 -21.365420 -9.753606 -25.305280 4.193071 12.412985 37.209084 1.782462 -6.035435 -24.029686 0.078652 -1.805858 -4.969558 0.000000 0.000000 0.000000 13.198898 16.009584 -21.402746 -4.143407 -12.348752 36.977261 0.357541 16.254798 -7.297378 -4.080893 -12.267224 36.684021 -0.840635 0.424343 -11.558592 0.321741 0.649401 0.836767 0.929031 0.272471 7.370006 -4.834724 -1.168924 -14.606633 1.507358 -0.975848 20.227564 1.189999 -0.742063 8.766703 0.000000 0.000000 0.000000 -0.216947 0.001007 -22.415187 18.181440 -28.388857 4.635162 15.297246 -5.755545 -32.542883 0.000000 0.000000 0.000000 -7.125000 0.000000 0.000000 -20.399502 62.320148 8.783914 0.000000 0.000000 0.000000 -0.369727 4.451142 20.551802 -19.638351 -30.204138 -5.348247 -24.755863 2.395417 -30.828664 0.000000 0.000000 0.000000 7.125000 0.000000 0.000000 3.752702 -3.269126 3.968943
17.152196 18.117186 0.660151 63.562805 -88.908558 -51.811782 0.000000 0.000000 0.000000 -21.556156 -10.728673 -23.589132 4.196936 12.417943 37.226965 1.966066 -5.421823 -25.353878 0.118886 -2.223368 -6.123232 0.000000 0.000000 0.000000 13.572291 16.446311 -19.326107 -3.967883 -12.117614 36.149188 0.296731 16.546483 -8.359222 -4.040638 -12.214281 36.494275 -1.087316 0.337372 -12.130704 0.287500 0.572081 0.652107 1.022880 0.223842 7.497618 -4.632705 -1.052881 -14.457991 1.868800 -0.962216 20.434072 1.281587 -0.688357 8.808036 0.000000 0.000000 0.000000 -2.139915 1.111221 -26.281158 17.294220 -27.244077 4.221158 15.304146 -7.023034 -32.397279 0.000000 0.000000 0.000000 -7.125000 0.000000 0.000000 -20.264826 62.186682 8.659651 0.000000 0.000000 0.000000 -1.218874 4.373717 20.292266 -19.639731 -30.205907 -5.348908 -21.481039 4.459129 -30.030847 0.000000 0.000000 0.000000 7.125000 0.000000 0.000000 5.511899 -1.738866 5.702696
17.102188 18.106530 0.807906 33.134622 -88.583463 -22.114242 0.000000 0.000000 0.000000 -21.945929 -10.080703 -22.834113 4.210310 12.435094 37.289165 1.889254 -6.180924 -24.755569 0.141508 -2.423394 -6.677409 0.000000 0.000000 0.000000 13.690927 15.824036 -18.121312 -3.916317 -12.048203 35.902825 0.287303 16.893313 -8.797463 -4.017998 -12.184354 36.387190 -1.283143 0.215753 -12.683861 0.229828 0.448095 0.614026 1.054170 0.153791 7.773538 -4.478050 -1.187126 -14.472200 2.104561 -1.217071 19.964405 1.304459 -0.760381 8.659056 0.000000 0.000000 0.000000 -1.855365 0.674542 -32.397809 16.295487 -25.919626 3.774227 18.692261 -4.375061 -32.183991 0.000000 0.000000 0.000000 -7.125000 0.000000 0.000000 -16.331800 62.852378 7.182228 0.000000 0.000000 0.000000 -2.305085 3.725525 20.158530 -19.361342 -29.865270 -5.209571 -21.921542 3.806727 -29.857691 0.000000 0.000000 0.000000 7.125000 0.000000 0.000000 5.234244 -1.651173 5.405337
